Coordinates
version=1
nRows=65
nColumns=12
inDegrees=yes

Units are S.I. units (second, meters, Newtons, ...)
Angles are in degrees

endheader
time	SC_y	SC_z	SC_x	AC_y	AC_z	AC_x	GH_y	GH_z	GH_yy	EL_x	PS_y
       0.0              -43.25          21.98          43.43          58.47         -7.621          3.724         -117.7          39.36          79.61          87.19          36.74
    0.0429              -43.25          21.98          43.42          58.47          -7.62          3.725         -117.7          39.37          79.59          87.19          36.74
   0.08579              -43.24          21.98          43.42          58.48          -7.62          3.726         -117.6          39.37          79.57          87.19          36.74
    0.1287              -43.24          21.98          43.41          58.48         -7.619          3.728         -117.6          39.38          79.54          87.19          36.74
    0.1716              -43.23          21.97           43.4          58.48         -7.618          3.729         -117.5          39.38          79.52          87.19          36.74
    0.2145              -43.23          21.97          43.39          58.48         -7.618          3.731         -117.5          39.39          79.49          87.19          36.74
    0.2574              -43.22          21.97          43.39          58.48         -7.617          3.733         -117.4           39.4          79.46          87.19          36.74
    0.3003              -43.22          21.97          43.38          58.48         -7.616          3.735         -117.4           39.4          79.43          87.19          36.74
    0.3432              -43.21          21.96          43.37          58.49         -7.615          3.737         -117.3          39.41          79.39          87.19          36.74
    0.3861               -43.2          21.96          43.36          58.49         -7.614          3.739         -117.3          39.42          79.36          87.19          36.74
     0.429              -43.19          21.96          43.35          58.49         -7.613          3.741         -117.2          39.43          79.32          87.19          36.74
    0.4719              -43.19          21.95          43.33          58.49         -7.612          3.744         -117.1          39.44          79.28          87.19          36.74
    0.5148              -43.18          21.95          43.32          58.49          -7.61          3.747         -117.1          39.45          79.23          87.19          36.74
    0.5577              -43.17          21.95          43.31           58.5         -7.609           3.75         -117.0          39.46          79.18          87.19          36.74
    0.6006              -43.16          21.94          43.29           58.5         -7.607          3.753         -116.9          39.47          79.13          87.19          36.75
    0.6435              -43.14          21.94          43.27           58.5         -7.606          3.756         -116.8          39.48          79.07          87.19          36.75
    0.6864              -43.13          21.93          43.26          58.51         -7.604           3.76         -116.7          39.49          79.01          87.19          36.75
    0.7293              -43.12          21.93          43.24          58.51         -7.602          3.764         -116.6          39.51          78.94          87.19          36.75
    0.7722               -43.1          21.92          43.22          58.51           -7.6          3.768         -116.4          39.52          78.86          87.19          36.75
    0.8151              -43.09          21.91          43.19          58.52         -7.598          3.773         -116.3          39.54          78.78          87.19          36.75
    0.8579              -43.07          21.91          43.17          58.52         -7.595          3.779         -116.2          39.56          78.69          87.19          36.75
    0.9008              -43.05           21.9          43.14          58.53         -7.592          3.785         -116.0          39.58          78.59          87.19          36.75
    0.9437              -43.03          21.89          43.11          58.53         -7.589          3.791         -115.8           39.6          78.48          87.19          36.75
    0.9866               -43.0          21.88          43.07          58.54         -7.586          3.798         -115.6          39.63          78.36          87.19          36.76
      1.03              -42.97          21.87          43.03          58.55         -7.582          3.806         -115.4          39.66          78.23          87.19          36.76
     1.072              -42.94          21.86          42.99          58.55         -7.578          3.815         -115.1          39.69          78.08          87.19          36.76
     1.115              -42.91          21.84          42.94          58.56         -7.573          3.825         -114.9          39.73          77.91          87.19          36.76
     1.158              -42.87          21.83          42.89          58.57         -7.568          3.837         -114.5          39.77          77.72          87.19          36.76
     1.201              -42.83          21.81          42.83          58.58         -7.562          3.849         -114.2          39.81           77.5          87.19          36.77
     1.244              -42.78          21.79          42.76           58.6         -7.555          3.864         -113.8          39.86          77.26          87.19          36.77
     1.287              -42.72          21.77          42.68          58.61         -7.548           3.88         -113.3          39.92          76.98           87.2          36.77
      1.33              -42.66          21.74          42.59          58.63         -7.539          3.899         -112.8          39.99          76.67           87.2          36.78
     1.373              -42.59          21.71          42.49          58.65         -7.528          3.921         -112.2          40.07           76.3           87.2          36.78
     1.416               -42.5          21.68          42.36          58.67         -7.517          3.947         -111.5          40.16          75.87           87.2          36.79
     1.459               -42.4          21.63          42.22           58.7         -7.503          3.976         -110.6          40.26          75.37           87.2          36.79
     1.501              -42.28          21.59          42.05          58.73         -7.486          4.011         -109.7          40.39          74.78           87.2           36.8
     1.544              -42.14          21.53          41.85          58.76         -7.467          4.053         -108.5          40.54          74.08           87.2          36.81
     1.587              -41.97          21.46          41.61          58.81         -7.443          4.103         -107.1          40.71          73.24           87.2          36.82
      1.63              -41.77          21.38          41.33          58.86         -7.415          4.163         -105.4          40.93          72.23          87.21          36.83
     1.673              -41.52          21.27          40.97          58.93          -7.38          4.237         -103.4          41.19          70.99          87.21          36.85
     1.716              -41.21          21.15          40.54          59.01         -7.338          4.328         -100.8          41.52          69.45          87.21          36.87
     1.759              -40.82          20.99          39.99          59.11         -7.284          4.442         -97.64          41.92          67.55          87.22          36.89
     1.802              -40.34          20.79          39.31          59.23         -7.217          4.585         -93.64          42.43          65.14          87.22          36.92
     1.845              -39.72          20.54          38.44          59.39         -7.132          4.767         -88.56          43.08          62.08          87.23          36.96
     1.887              -38.93          20.22          37.32           59.6         -7.023            5.0         -82.06           43.9          58.17          87.24          37.01
      1.93              -37.92          19.81          35.89          59.86         -6.883          5.299         -73.71          44.97          53.15          87.25          37.08
     1.973              -36.63          19.28          34.06           60.2         -6.704           5.68         -63.05          46.33          46.73          87.26          37.16
     2.016              -35.01          18.62          31.76          60.62         -6.479           6.16         -49.64          48.03          38.67          87.28          37.26
     2.059              -33.03          17.82          28.96          61.13         -6.205          6.745         -33.31          50.11          28.84           87.3          37.39
     2.102              -30.73          16.88          25.72          61.73         -5.887          7.423         -14.37          52.53          17.44          87.33          37.53
     2.145              -28.25          15.87           22.2          62.38         -5.543          8.157           6.13          55.14          5.106          87.36          37.69
     2.188              -25.76          14.85          18.69          63.02         -5.199          8.891          26.63          57.75         -7.231          87.39          37.84
     2.231              -23.47          13.92          15.44          63.62         -4.881          9.569          45.57          60.16         -18.62          87.41          37.99
     2.274              -21.49          13.11          12.64          64.13         -4.607          10.15           61.9          62.24         -28.45          87.43          38.11
     2.316              -19.86          12.45          10.35          64.56         -4.382          10.63          75.31          63.95         -36.52          87.45          38.22
     2.359              -18.57          11.92          8.519          64.89         -4.204          11.02          85.97          65.31         -42.93          87.47           38.3
     2.402              -17.56          11.51          7.088          65.16         -4.063          11.31          94.32          66.37         -47.96          87.48          38.36
     2.445              -16.77          11.19          5.973          65.36         -3.954          11.55          100.8           67.2         -51.87          87.49          38.41
     2.488              -16.15          10.94          5.102          65.52         -3.869          11.73          105.9          67.85         -54.93          87.49          38.45
     2.531              -15.67          10.74          4.417          65.65         -3.802          11.87          109.9          68.35         -57.33           87.5          38.48
     2.574              -15.28          10.59          3.873          65.75         -3.749          11.99          113.1          68.76         -59.24           87.5          38.51
     2.617              -14.98          10.46          3.437          65.83         -3.706          12.08          115.6          69.08         -60.77          87.51          38.53
      2.66              -14.73          10.36          3.084          65.89         -3.671          12.15          117.7          69.35         -62.01          87.51          38.54
     2.703              -14.52          10.28          2.795          65.94         -3.643          12.21          119.4          69.56         -63.03          87.51          38.55
     2.745              -14.35          10.21          2.555          65.99          -3.62          12.26          120.8          69.74         -63.87          87.51          38.57
